<?xml version="1.0" standalone="no"?><!DOCTYPE svg PUBLIC "-//W3C//DTD SVG 1.1//EN" "http://www.w3.org/Graphics/SVG/1.1/DTD/svg11.dtd"><svg t="1627465633485" class="icon" viewBox="0 0 1024 1024" version="1.1" xmlns="http://www.w3.org/2000/svg" p-id="9358" xmlns:xlink="http://www.w3.org/1999/xlink" width="200" height="200"><defs><style type="text/css"></style></defs><path d="M332.6 371.5H132c-22 0-40-18-40-40V130.9c0-22 18-40 40-40h200.6c22 0 40 18 40 40v200.6c0 22-18 40-40 40z" fill="#FDF17F" p-id="9359"></path><path d="M611.4 371.5H410.7c-22 0-40-18-40-40V130.9c0-22 18-40 40-40h200.6c22 0 40 18 40 40v200.6c0.1 22-17.9 40-39.9 40z" fill="#FDF17F" p-id="9360"></path><path d="M892 371.5H691.4c-22 0-40-18-40-40V130.9c0-22 18-40 40-40H892c22 0 40 18 40 40v200.6c0 22-18 40-40 40z" fill="#F77490" p-id="9361"></path><path d="M332.6 652.2H132c-22 0-40-18-40-40V411.5c0-22 18-40 40-40h200.6c22 0 40 18 40 40v200.6c0 22.1-18 40.1-40 40.1z" fill="#50E6CC" p-id="9362"></path><path d="M611.4 652.2H410.7c-22 0-40-18-40-40V411.5c0-22 18-40 40-40h200.6c22 0 40 18 40 40v200.6c0.1 22.1-17.9 40.1-39.9 40.1zM892 652.2H691.4c-22 0-40-18-40-40V411.5c0-22 18-40 40-40H892c22 0 40 18 40 40v200.6c0 22.1-18 40.1-40 40.1z" fill="#F77490" p-id="9363"></path><path d="M332.6 933.1H132c-22 0-40-18-40-40V692.5c0-22 18-40 40-40h200.6c22 0 40 18 40 40v200.6c0 22-18 40-40 40z" fill="#50E6CC" p-id="9364"></path><path d="M611.4 933.1H410.7c-22 0-40-18-40-40V692.5c0-22 18-40 40-40h200.6c22 0 40 18 40 40v200.6c0.1 22-17.9 40-39.9 40z" fill="#50E6CC" p-id="9365"></path><path d="M892 933.1H691.4c-22 0-40-18-40-40V692.5c0-22 18-40 40-40H892c22 0 40 18 40 40v200.6c0 22-18 40-40 40z" fill="#00A4FF" p-id="9366"></path><path d="M332.6 381.5H132c-27.6 0-50-22.4-50-50V130.9c0-27.6 22.4-50 50-50h200.6c27.6 0 50 22.4 50 50v200.6c0 27.6-22.4 50-50 50zM132 100.9c-16.5 0-30 13.5-30 30v200.6c0 16.5 13.5 30 30 30h200.6c16.5 0 30-13.5 30-30V130.9c0-16.5-13.5-30-30-30H132z" fill="#494949" p-id="9367"></path><path d="M611.4 381.5H410.7c-27.6 0-50-22.4-50-50V130.9c0-27.6 22.4-50 50-50h200.6c27.6 0 50 22.4 50 50v200.6c0.1 27.6-22.4 50-49.9 50zM410.7 100.9c-16.5 0-30 13.5-30 30v200.6c0 16.5 13.5 30 30 30h200.6c16.5 0 30-13.5 30-30V130.9c0-16.5-13.5-30-30-30H410.7z" fill="#494949" p-id="9368"></path><path d="M892 381.5H691.4c-27.6 0-50-22.4-50-50V130.9c0-27.6 22.4-50 50-50H892c27.6 0 50 22.4 50 50v200.6c0 27.6-22.4 50-50 50zM691.4 100.9c-16.5 0-30 13.5-30 30v200.6c0 16.5 13.5 30 30 30H892c16.5 0 30-13.5 30-30V130.9c0-16.5-13.5-30-30-30H691.4zM332.6 662.2H132c-27.6 0-50-22.4-50-50V411.5c0-27.6 22.4-50 50-50h200.6c27.6 0 50 22.4 50 50v200.6c0 27.6-22.4 50.1-50 50.1zM132 381.5c-16.5 0-30 13.5-30 30v200.6c0 16.5 13.5 30 30 30h200.6c16.5 0 30-13.5 30-30V411.5c0-16.5-13.5-30-30-30H132z" fill="#494949" p-id="9369"></path><path d="M611.4 662.2H410.7c-27.6 0-50-22.4-50-50V411.5c0-27.6 22.4-50 50-50h200.6c27.6 0 50 22.4 50 50v200.6c0.1 27.6-22.4 50.1-49.9 50.1zM410.7 381.5c-16.5 0-30 13.5-30 30v200.6c0 16.5 13.5 30 30 30h200.6c16.5 0 30-13.5 30-30V411.5c0-16.5-13.5-30-30-30H410.7z" fill="#494949" p-id="9370"></path><path d="M892 662.2H691.4c-27.6 0-50-22.4-50-50V411.5c0-27.6 22.4-50 50-50H892c27.6 0 50 22.4 50 50v200.6c0 27.6-22.4 50.1-50 50.1zM691.4 381.5c-16.5 0-30 13.5-30 30v200.6c0 16.5 13.5 30 30 30H892c16.5 0 30-13.5 30-30V411.5c0-16.5-13.5-30-30-30H691.4zM332.6 943.1H132c-27.6 0-50-22.4-50-50V692.5c0-27.6 22.4-50 50-50h200.6c27.6 0 50 22.4 50 50v200.6c0 27.6-22.4 50-50 50zM132 662.5c-16.5 0-30 13.5-30 30v200.6c0 16.5 13.5 30 30 30h200.6c16.5 0 30-13.5 30-30V692.5c0-16.5-13.5-30-30-30H132z" fill="#494949" p-id="9371"></path><path d="M611.4 943.1H410.7c-27.6 0-50-22.4-50-50V692.5c0-27.6 22.4-50 50-50h200.6c27.6 0 50 22.4 50 50v200.6c0.1 27.6-22.4 50-49.9 50zM410.7 662.5c-16.5 0-30 13.5-30 30v200.6c0 16.5 13.5 30 30 30h200.6c16.5 0 30-13.5 30-30V692.5c0-16.5-13.5-30-30-30H410.7z" fill="#494949" p-id="9372"></path><path d="M892 943.1H691.4c-27.6 0-50-22.4-50-50V692.5c0-27.6 22.4-50 50-50H892c27.6 0 50 22.4 50 50v200.6c0 27.6-22.4 50-50 50zM691.4 662.5c-16.5 0-30 13.5-30 30v200.6c0 16.5 13.5 30 30 30H892c16.5 0 30-13.5 30-30V692.5c0-16.5-13.5-30-30-30H691.4z" fill="#494949" p-id="9373"></path></svg>